<svg width="25" height="21" viewBox="0 0 25 21" fill="none" xmlns="http://www.w3.org/2000/svg">
<path d="M4.5 6.25C4.5 6.25 4.5 4.25 6.5 4.25H18.5C18.5 4.25 20.5 4.25 20.5 6.25V12.25C20.5 12.25 20.5 14.25 18.5 14.25H14.5C14.5 14.9167 14.5833 15.4167 14.75 15.75H15.5C15.7761 15.75 16 15.9739 16 16.25C16 16.5261 15.7761 16.75 15.5 16.75H9.5C9.22386 16.75 9 16.5261 9 16.25C9 15.9739 9.22386 15.75 9.5 15.75H10.25C10.4167 15.4167 10.5 14.9167 10.5 14.25H6.5C6.5 14.25 4.5 14.25 4.5 12.25V6.25ZM5.89845 5.39455C5.79294 5.46489 5.71011 5.56584 5.64443 5.69721C5.57678 5.8325 5.53798 5.97989 5.51764 6.1019C5.50787 6.16053 5.50337 6.20721 5.50136 6.23531C5.50053 6.24696 5.50016 6.25504 5.5 6.25902V12.25C5.5 12.575 5.57838 12.7523 5.64455 12.8516C5.71489 12.9571 5.81584 13.0399 5.94721 13.1056C6.0825 13.1732 6.22989 13.212 6.3519 13.2324C6.41053 13.2421 6.45721 13.2466 6.48531 13.2486C6.49697 13.2495 6.50504 13.2498 6.50903 13.25H18.5C18.825 13.25 19.0023 13.1716 19.1016 13.1054C19.2071 13.0351 19.2899 12.9342 19.3556 12.8028C19.4232 12.6675 19.462 12.5201 19.4824 12.3981C19.4921 12.3395 19.4966 12.2928 19.4986 12.2647C19.4995 12.253 19.4998 12.245 19.5 12.241V6.25C19.5 5.92498 19.4216 5.7477 19.3554 5.64845C19.2851 5.54294 19.1842 5.46011 19.0528 5.39443C18.9175 5.32678 18.7701 5.28798 18.6481 5.26764C18.5895 5.25787 18.5428 5.25337 18.5147 5.25136C18.503 5.25053 18.495 5.25016 18.491 5.25H6.5C6.17498 5.25 5.9977 5.32838 5.89845 5.39455Z" fill="#2F2F2F"/>
</svg>
