<svg width="806" height="185" viewBox="0 0 806 185" fill="none" xmlns="http://www.w3.org/2000/svg">
<path d="M0.400002 149V3H38.2C47.6667 3 55.8 4.8 62.6 8.4C69.5333 12 74.8667 17.0667 78.6 23.6C82.4667 30.1333 84.4 37.8667 84.4 46.8V105C84.4 113.933 82.4667 121.733 78.6 128.4C74.8667 134.933 69.5333 140 62.6 143.6C55.8 147.2 47.6667 149 38.2 149H0.400002ZM18.4 133H38.2C47 133 53.8667 130.533 58.8 125.6C63.8667 120.667 66.4 113.8 66.4 105V46.8C66.4 38.1333 63.8667 31.3333 58.8 26.4C53.8667 21.4667 47 19 38.2 19H18.4V133ZM161.922 151C153.255 151 145.655 149.267 139.122 145.8C132.722 142.333 127.722 137.467 124.122 131.2C120.655 124.8 118.922 117.4 118.922 109V79C118.922 70.4667 120.655 63.0667 124.122 56.8C127.722 50.5333 132.722 45.6667 139.122 42.2C145.655 38.7333 153.255 37 161.922 37C170.589 37 178.122 38.7333 184.522 42.2C191.055 45.6667 196.055 50.5333 199.522 56.8C203.122 63.0667 204.922 70.4667 204.922 79V98.4H136.522V109C136.522 117.667 138.722 124.333 143.122 129C147.522 133.533 153.789 135.8 161.922 135.8C168.855 135.8 174.455 134.6 178.722 132.2C182.989 129.667 185.589 125.933 186.522 121H204.522C203.322 130.2 198.789 137.533 190.922 143C183.189 148.333 173.522 151 161.922 151ZM187.322 86.4V79C187.322 70.3333 185.122 63.6667 180.722 59C176.455 54.3333 170.189 52 161.922 52C153.789 52 147.522 54.3333 143.122 59C138.722 63.6667 136.522 70.3333 136.522 79V84.8H188.722L187.322 86.4ZM269.644 149L232.844 39H251.244L275.644 113C277.11 117.4 278.444 121.667 279.644 125.8C280.844 129.8 281.71 132.933 282.244 135.2C282.91 132.933 283.844 129.8 285.044 125.8C286.244 121.667 287.51 117.4 288.844 113L312.644 39H330.844L294.044 149H269.644ZM402.566 151C392.966 151 384.699 149.4 377.766 146.2C370.966 143 365.699 138.4 361.966 132.4C358.232 126.4 356.299 119.267 356.166 111H374.166C374.166 118.333 376.632 124.133 381.566 128.4C386.632 132.667 393.632 134.8 402.566 134.8C410.966 134.8 417.499 132.733 422.166 128.6C426.966 124.467 429.366 118.733 429.366 111.4C429.366 105.533 427.766 100.4 424.566 96C421.499 91.6 417.032 88.5333 411.166 86.8L391.366 80.6C381.366 77.5333 373.632 72.4 368.166 65.2C362.832 58 360.166 49.5333 360.166 39.8C360.166 31.9333 361.899 25.1333 365.366 19.4C368.966 13.5333 373.966 8.99999 380.366 5.8C386.766 2.46666 394.299 0.799989 402.966 0.799989C415.766 0.799989 426.032 4.39999 433.766 11.6C441.499 18.6667 445.432 28.1333 445.566 40H427.566C427.566 32.8 425.366 27.2 420.966 23.2C416.699 19.0667 410.632 17 402.766 17C395.032 17 388.966 18.8667 384.566 22.6C380.299 26.3333 378.166 31.5333 378.166 38.2C378.166 44.2 379.766 49.4 382.966 53.8C386.166 58.2 390.766 61.3333 396.766 63.2L416.766 69.6C426.499 72.6667 434.032 77.8667 439.366 85.2C444.699 92.5333 447.366 101.133 447.366 111C447.366 119 445.499 126 441.766 132C438.032 138 432.766 142.667 425.966 146C419.299 149.333 411.499 151 402.566 151ZM497.288 185L513.488 142.2L472.688 39H492.688L518.288 107C519.221 109.267 520.088 112 520.888 115.2C521.688 118.267 522.354 120.867 522.888 123C523.421 120.867 524.088 118.267 524.888 115.2C525.688 112 526.488 109.267 527.288 107L551.288 39H570.688L516.488 185H497.288ZM600.009 149V39H618.009V60H621.809L618.009 64.2C618.009 55.5333 620.609 48.8667 625.809 44.2C631.009 39.4 638.209 37 647.409 37C658.476 37 667.276 40.4 673.809 47.2C680.343 54 683.609 63.2667 683.609 75V149H665.609V77C665.609 69.1333 663.476 63.1333 659.209 59C655.076 54.7333 649.409 52.6 642.209 52.6C634.743 52.6 628.809 54.8667 624.409 59.4C620.143 63.9333 618.009 70.4667 618.009 79V149H600.009ZM762.331 151C753.531 151 745.798 149.333 739.131 146C732.598 142.667 727.531 137.867 723.931 131.6C720.331 125.2 718.531 117.667 718.531 109V79C718.531 70.2 720.331 62.6667 723.931 56.4C727.531 50.1333 732.598 45.3333 739.131 42C745.798 38.6667 753.531 37 762.331 37C774.998 37 785.198 40.4 792.931 47.2C800.665 54 804.731 63.2667 805.131 75H787.131C786.731 67.9333 784.331 62.5333 779.931 58.8C775.665 54.9333 769.798 53 762.331 53C754.465 53 748.198 55.2667 743.531 59.8C738.865 64.2 736.531 70.5333 736.531 78.8V109C736.531 117.267 738.865 123.667 743.531 128.2C748.198 132.733 754.465 135 762.331 135C769.798 135 775.665 133.067 779.931 129.2C784.331 125.333 786.731 119.933 787.131 113H805.131C804.731 124.733 800.665 134 792.931 140.8C785.198 147.6 774.998 151 762.331 151Z" fill="#33B3AE"/>
</svg>
